Coordinates
version=1
nRows=9
nColumns=36
inDegrees=yes

Units are S.I. units (second, meters, Newtons, ...)
If the header above contains a line with 'inDegrees', this indicates whether rotational values are in degrees (yes) or radians (no).

endheader
time	pelvis_tilt	pelvis_list	pelvis_rotation	pelvis_tx	pelvis_ty	pelvis_tz	hip_flexion_r	hip_adduction_r	hip_rotation_r	knee_angle_r	knee_angle_r_beta	ankle_angle_r	subtalar_angle_r	mtp_angle_r	hip_flexion_l	hip_adduction_l	hip_rotation_l	knee_angle_l	knee_angle_l_beta	ankle_angle_l	subtalar_angle_l	mtp_angle_l	lumbar_extension	lumbar_bending	lumbar_rotation	arm_flex_r	arm_add_r	arm_rot_r	elbow_flex_r	pro_sup_r	arm_flex_l	arm_add_l	arm_rot_l	elbow_flex_l	pro_sup_l
      0.00000000	      2.89514889	     -1.47373567	      3.05207575	      0.01648421	      0.80193151	      0.10604165	     -1.00990407	     -0.36383176	     -5.63170873	      4.20734139	      0.07343196	      7.43040598	      1.15506834	     -8.96086357	     -3.46577334	     -4.79856287	     -4.66439693	      1.84935951	      0.03227741	     13.45273478	      2.65322103	     -8.96086357	     -3.03320990	      2.02221305	      1.04676388	     55.41660364	     19.33294687	     63.03910043	    123.42568833	     99.47675022	     36.54318530	     18.03427210	     49.67203539	    147.19240336	    101.97325143
      0.01666670	      0.52022710	     -1.51292404	      2.80851997	      0.01937954	      0.79899424	      0.10649270	      1.83451140	     -0.24038693	     -5.03890086	      4.61281449	      0.08050880	      9.34921660	      1.13513133	     -8.07164465	     -0.52713603	     -4.39611345	     -4.45251217	      1.94885274	      0.03401390	     12.50539990	      2.10516961	     -8.07164465	      0.57396680	      1.50700750	      1.99356897	     56.64106715	     19.00126084	     62.24101278	    125.20005780	    105.07785399	     37.27073662	     20.54270699	     51.98701306	    148.02681075	    100.04138149
      0.03333330	     -0.71717807	     -0.57639620	      2.22913281	      0.02009354	      0.79876209	      0.10826612	      2.71353001	     -1.16237595	     -5.44985006	      3.64042372	      0.06353738	      8.85677257	      1.77955371	     -7.78535542	      0.78889124	     -3.44600518	     -5.34595492	      1.89028479	      0.03299169	     11.49480033	      1.99334993	     -7.78535542	      2.52105648	      0.08662878	      3.01751751	     56.18335802	     18.92434016	     61.47038614	    126.09902075	    105.81893011	     37.12301849	     20.69075880	     52.43657684	    147.95584000	     99.61600041
      0.05000000	     -1.01486029	      0.10998838	      1.94492632	      0.02113973	      0.79762099	      0.10863960	      2.66550664	     -1.85012621	     -5.64208763	      3.03467418	      0.05296506	      8.71897781	      2.38930922	     -7.64352700	      0.87497571	     -2.72494107	     -5.46319804	      1.45873418	      0.02545971	     10.62378145	      1.37075773	     -7.64352700	      3.00242879	     -0.75646069	      3.25788697	     55.95901728	     19.28034622	     62.09600727	    125.98450652	    105.82425984	     37.26138746	     20.46191821	     52.78044636	    147.46820543	    100.78232775
      0.06666670	     -1.20334434	      0.44739916	      1.81811567	      0.02162727	      0.79898429	      0.10947988	      2.53584956	     -2.11859989	     -5.70321948	      2.41897746	      0.04221912	      8.24693719	      2.56553167	     -7.54278999	      0.89833137	     -2.36150017	     -5.43192499	      1.13752055	      0.01985348	     10.03032049	      1.03771925	     -7.54278999	      3.31831358	     -1.02228499	      3.32605005	     55.76301517	     19.40258196	     62.72544952	    125.15871255	    105.77195310	     37.47864870	     19.94200716	     52.02645213	    146.84573716	    100.40645337
      0.08333330	     -1.25629749	      0.57236471	      1.91620803	      0.02022611	      0.79564194	      0.11013965	      2.42199041	     -2.16413769	     -5.66922686	      2.11349952	      0.03688753	      7.95837084	      2.43931478	     -7.51004707	      0.86368768	     -2.21189463	     -4.91973024	      1.04853377	      0.01830037	     10.03053612	      0.60883592	     -7.51004707	      3.45617870	     -1.09703193	      3.27034372	     55.63270585	     19.26322535	     63.05474145	    124.62658210	    105.22408124	     37.63090464	     19.56913742	     50.97784835	    146.23336752	    100.25059090
      0.10000000	     -1.19703704	      0.58281105	      1.95915811	      0.02118755	      0.79622661	      0.10995119	      2.27658250	     -2.11572797	     -5.52106399	      1.99115624	      0.03475223	      7.58924543	      2.07539040	     -7.50148229	      0.74661580	     -2.18030144	     -4.61466052	      0.96751950	      0.01688640	     10.13036566	      0.43298164	     -7.50148229	      3.52423338	     -1.03802494	      3.18659680	     55.33010275	     19.06040071	     63.42802279	    124.27000204	    104.96925362	     37.40879420	     19.22522208	     49.51172714	    145.80446076	     99.57916080
      0.11666670	     -1.15846081	      0.58202398	      1.98360743	      0.02114786	      0.79731995	      0.10987430	      2.17716945	     -2.06618908	     -5.43881657	      1.85473854	      0.03237129	      7.28503905	      1.86870866	     -7.50053822	      0.56796758	     -2.14473296	     -4.27544733	      0.94301238	      0.01645867	     10.28085700	      0.20305461	     -7.50053822	      3.53264947	     -1.00871213	      3.02128080	     55.01822537	     18.85955731	     63.72330660	    123.95496352	    104.75611240	     37.00538337	     19.01965531	     48.10086772	    145.44903986	     98.66413608
      0.13333330	     -1.09569021	      0.67737557	      2.08342162	      0.02213679	      0.79712183	      0.10938864	      2.03558832	     -2.14090384	     -5.35966342	      1.77704307	      0.03101525	      7.16262273	      1.66517294	     -7.50014890	      0.48338611	     -1.99476510	     -3.91038006	      0.94012761	      0.01640832	     10.08897493	     -0.23702530	     -7.50014890	      3.53354705	     -1.09215780	      3.12030149	     54.69566477	     18.62881611	     63.91486954	    123.76236557	    104.68154045	     36.43461912	     19.11243776	     47.29900088	    145.60732193	     97.75306733
